# xmcd
#
# Track frame offsets: 
#        150
#        13154
#        24671
#        35373
#        48108
#        61243
#        72650
#        84880
#        98720
#        110904
#        123065
#        134849
#        146851
#        160251
#        173357
#        184269
#        195768
#        210399
#        222617
#        233873
#        246396
#        256186
#        268762
#        281104
#        293407
#
# Disc length: 4061 seconds
#
# Revision: 0
# Processed by: cddbd v1.5.2PL0 Copyright (c) Steve Scherf et al.
# Submitted via: ExactAudioCopy v0.99pb5
#
DISCID=720fdb19
DTITLE=Various Artist - Broken Hearts - CD3
DYEAR=1953
DGENRE=Blues
TTITLE0=Wynonie Harris - Teardrops From My Eyes (1950)
TTITLE1=Hank Williams - My Son Calls Another Man Daddy (1950)
TTITLE2=Tennessee Ernie Ford - I An't Gonna Let It Happen No More (195
TTITLE2=0)
TTITLE3=Webb Pierce - Jilted Love (1950)
TTITLE4=Bailey Frothers - I Will Never Marry (1948)
TTITLE5=Earl Bostic - Lover Come Back To Me (1951)
TTITLE6=Dinah Washington - My Heart Cries For You (1951)
TTITLE7=Johnny Ray - Cry (1951)
TTITLE8=Howlin' Wolf - How Many More Years (1951)
TTITLE9=Hank Williams - Your Cheatin' Heart (1952)
TTITLE10=Hank Snow - Married By The Bible, Divorced By The Law (1952)
TTITLE11=Lefty Frizzell - Lost Love Bues (1952)
TTITLE12=Howlin' Wolf - My Baby Stole Off (1951)
TTITLE13=The Stanley Brothers - The Little Glass Of Wine (1952)
TTITLE14=Jim and Jesse - I'll Wash Your Love From My Heart (1952)
TTITLE15=Little Richard - Why Did You Leave Me (1951)
TTITLE16=Billy May and HO - When Your Lover Has Gone (1952)
TTITLE17=Hank Snow - I Went To Your Wedding (1952)
TTITLE18=Hank Thompson - It's Better To Have Loved A Little (Than To H
TTITLE18=ave Never Loved At All) (1952)
TTITLE19=Marty Robbins - I Couldn't Keep From Crying (1952)
TTITLE20=Maddox Brothers and Rose - I Wish I Was A Single Girl Again (19
TTITLE20=48)
TTITLE21=Ernest Tubb - Divorce Granted (1953)
TTITLE22=Chet Baker - The Thrill Is Gone (1953)
TTITLE23=Flatt and Scruggs - Someone Took My Place With You (1953)
TTITLE24=Smiley Lewis - You're Not The One (1952)
EXTD=
EXTT0=
EXTT1=
EXTT2=
EXTT3=
EXTT4=
EXTT5=
EXTT6=
EXTT7=
EXTT8=
EXTT9=
EXTT10=
EXTT11=
EXTT12=
EXTT13=
EXTT14=
EXTT15=
EXTT16=
EXTT17=
EXTT18=
EXTT19=
EXTT20=
EXTT21=
EXTT22=
EXTT23=
EXTT24=
PLAYORDER=
